<?xml version="1.0" encoding="utf-8"?>
<!-- Generator: Adobe Illustrator 16.0.0, SVG Export Plug-In . SVG Version: 6.00 Build 0)  -->
<!DOCTYPE svg PUBLIC "-//W3C//DTD SVG 1.1//EN" "http://www.w3.org/Graphics/SVG/1.1/DTD/svg11.dtd">
<svg version="1.1" id="Layer_1" xmlns="http://www.w3.org/2000/svg" xmlns:xlink="http://www.w3.org/1999/xlink" x="0px" y="0px"
	 width="500px" height="500px" viewBox="0 0 500 500" enable-background="new 0 0 500 500" xml:space="preserve">
<path fill="#ffad2e" d="M131.889,150.061v63.597h-27.256c-20.079,0-36.343,16.263-36.343,36.342v181.711
	c0,20.078,16.264,36.34,36.343,36.34h290.734c20.078,0,36.345-16.262,36.345-36.34V250c0-20.079-16.267-36.342-36.345-36.342
	h-27.254v-63.597c0-65.232-52.882-118.111-118.112-118.111C184.771,31.95,131.889,84.828,131.889,150.061z M177.317,213.658v-63.597
	c0-40.157,32.525-72.685,72.683-72.685s72.685,32.528,72.685,72.685v63.597H177.317z M213.658,313.6
	c0-20.078,16.263-36.342,36.342-36.342s36.341,16.264,36.341,36.342c0,12.812-6.634,24.078-16.625,30.528
	c0,0,3.55,21.446,7.542,46.699c0,7.538-6.087,13.625-13.629,13.625h-27.258c-7.541,0-13.627-6.087-13.627-13.625l7.542-46.699
	C220.294,337.678,213.658,326.41,213.658,313.6z"/>
</svg>
