<?xml version="1.0" encoding="utf-8"?>
<!-- Generator: Adobe Illustrator 21.0.0, SVG Export Plug-In . SVG Version: 6.00 Build 0)  -->
<svg version="1.1" id="Слой_1" xmlns="http://www.w3.org/2000/svg" xmlns:xlink="http://www.w3.org/1999/xlink" x="0px" y="0px"
	 viewBox="0 0 292.1 288.9" style="enable-background:new 0 0 292.1 288.9;" xml:space="preserve">
<style type="text/css">
	.st0{fill:#FFFFFF;}
</style>
<g id="BACKGROUND">
</g>
<path class="st0" d="M91.3,173.8c-25.1-41.4-13.5-91.9,21.9-118.7c35.1-26.7,84.4-24,116.1,6.3c31.9,30.5,37,79.8,12.3,115.7
	c-25.3,36.8-77.5,52.2-121.8,25.4c-2.7,2.9-5.5,5.9-8.4,8.8c-16.5,16.5-33,33-49.5,49.4c-6.3,6.3-13.7,8.4-22.2,5.2
	c-13.9-5.3-17.7-22.5-7.3-33.2c12.9-13.3,26.2-26.3,39.3-39.4C78.2,186.8,84.7,180.4,91.3,173.8z M167.4,62.4
	c-35.5,0.1-64,28.7-63.9,64.2c0.1,35.4,28.7,63.9,64.2,63.8c35.3-0.1,63.8-28.7,63.8-64C231.4,90.9,202.8,62.3,167.4,62.4z"/>
</svg>
